<?xml version="1.0" standalone="no"?>
<!DOCTYPE svg PUBLIC "-//W3C//DTD SVG 20010904//EN"
 "http://www.w3.org/TR/2001/REC-SVG-20010904/DTD/svg10.dtd">
<svg version="1.0" xmlns="http://www.w3.org/2000/svg"
 width="200.000000pt" height="200.000000pt" viewBox="0 0 200.000000 200.000000"
 preserveAspectRatio="xMidYMid meet">

<g transform="translate(0.000000,200.000000) scale(0.100000,-0.100000)"
fill="#FFFFFF" stroke="none">
<path d="M344 1751 c-48 -12 -133 -62 -160 -94 -14 -17 -37 -53 -52 -81 l-27
-51 0 -395 0 -395 28 -53 c35 -67 91 -121 156 -151 l51 -24 0 -109 c0 -102 1
-110 25 -133 44 -45 66 -36 255 105 l175 129 78 1 c69 0 81 3 102 25 33 32 33
78 0 110 -22 23 -31 25 -128 25 l-103 0 -122 -90 -122 -90 0 64 c0 83 -17 105
-90 117 -58 9 -91 29 -124 73 -20 27 -21 39 -21 396 0 357 1 369 21 396 11 15
33 37 48 48 27 21 38 21 566 21 528 0 539 0 566 -21 67 -49 69 -57 74 -276 5
-195 6 -200 29 -219 33 -27 77 -24 107 6 l26 26 -4 207 c-3 202 -4 208 -30
258 -40 76 -70 107 -140 145 l-63 34 -545 2 c-300 1 -559 -2 -576 -6z"/>
<path d="M1369 1006 c-119 -33 -217 -118 -272 -234 -30 -62 -32 -75 -32 -172
0 -97 2 -110 32 -172 36 -77 98 -149 160 -185 262 -153 579 -8 634 291 30 162
-55 343 -201 429 -90 52 -221 70 -321 43z m235 -180 c79 -46 136 -141 136
-226 0 -102 -80 -212 -179 -245 -102 -34 -204 -5 -278 79 -124 141 -58 356
127 417 48 16 146 3 194 -25z"/>
<path d="M1521 675 l-77 -75 -23 24 c-30 32 -65 40 -100 22 -32 -17 -41 -34
-41 -78 0 -22 14 -44 56 -88 69 -72 101 -87 140 -67 16 9 75 62 132 120 86 88
102 109 102 136 0 42 -38 81 -81 81 -26 0 -45 -14 -108 -75z"/>
</g>
</svg>
