<svg xmlns="http://www.w3.org/2000/svg" viewBox="1.49 2.9 21.03 18.2">
  <path d="M 12.89 3 l 2 0.4 L 11.11 21 l -2 -0.4 L 12.89 3 m 6.7 9 L 16 8.41 V 5.58 L 22.42 12 L 16 18.41 V 15.58 L 19.59 12 m -18 0 L 8 5.58 V 8.41 L 4.41 12 L 8 15.58 v 2.83 Z M 19 9 V 17.8 C 19 18.9201 19 19.4802 18.782 19.908 C 18.5903 20.2843 18.2843 20.5903 17.908 20.782 C 17.4802 21 16.9201 21 15.8 21 H 8.2 C 7.0799 21 6.5198 21 6.092 20.782 C 5.7157 20.5903 5.4097 20.2843 5.218 19.908 C 5 19.4802 5 18.9201 5 17.8 V 6.2 C 5 5.0799 5 4.5198 5.218 4.092 C 5.4097 3.7157 5.7157 3.4097 6.092 3.218 C 6.5198 3 7.0799 3 9 3 H 13 M 19 9 L 13 3 M 19 9 H 14 C 13.4477 9 13 8.5523 13 8 V 3" stroke="#FF0000" stroke-width="0.1" fill="#000000"/>
</svg>